<svg id="Layer_1" data-name="Layer 1" xmlns="http://www.w3.org/2000/svg" viewBox="0 0 216 214.5"><defs><style>.cls-1{fill:#cc4b37;}</style></defs><title>45-logo</title><path class="cls-1" d="M112.29,98.1a10.45,10.45,0,0,0-10.14,4,9.51,9.51,0,0,0-1.59,3.3,10.2,10.2,0,0,0-.27,3.76,10.55,10.55,0,0,0,1.22,3.88l17.24-10.64A10.4,10.4,0,0,0,112.29,98.1Z"/><path class="cls-1" d="M208.27,154.29,190.42,140s-4.25-3.18-3-7.19c0,0,13.57-30.34-9.43-68,0,0-2.21-2.82-.34-7.46L188.47,41.1s3.33-4.31-2.92-8.59L169,19.69s-5.22-3.83-6.7,2.31c0,0-4.3,39.69-48.48,44.38v0c-1,.11-2.15.26-3.33.45A43.54,43.54,0,0,0,78,83.65a5.72,5.72,0,0,1-4.73,1.16s-3.49-1.16-1.17-6.4c0,0,8.5-19.21,43.65-19.79,0,0,35.19-2.48,39.23-41.9,0,0,.81-5.47-1.09-6,0,0-24.21-10.25-45.94-9.31,0,0-4-.63-5,4.34L99.56,28.4s-.62,5.28-4.65,6.21c0,0-32.59,3.41-53.39,42.21,0,0-1.32,3.33-6.21,4L16.07,79.61s-5.32-.74-5.9,6.83l-2.79,20.8s-.7,6.44,5.28,4.65c0,0,32.78-14.66,58.17,15.29a76.43,76.43,0,0,0,4.79,6.68,43.78,43.78,0,0,0,20.09,16.88,36.16,36.16,0,0,0,9.85,3.16,6.19,6.19,0,0,1,4.87,4s.78,3.65-4.92,4.24c0,0-20.9,2.19-39.34-28.34,0,0-20.1-29.61-56.15-13.36,0,0-5.14,2-4.63,4,0,0,3.52,26.37,15.41,44.95,0,0,1.52,3.85,6.28,2.18l21.28-8.38s4.87-2.11,7.73,1c0,0,19.58,26.86,63.65,25.62,0,0,3.55-.52,6.65,3.42l8.75,17.49s2.07,5,8.9,1.75l19.35-8s5.91-2.62,1.33-7c0,0-30.72-22.35-15.59-61.2a79.21,79.21,0,0,0,4.2-10.61,43.41,43.41,0,0,0,2.61-12.28A40.06,40.06,0,0,0,154,95a6.19,6.19,0,0,1,1-6.22s2.78-2.49,6.12,2.17c0,0,12.3,17-5,48.22,0,0-15.69,32.16,16.34,55.36,0,0,4.32,3.44,5.75,2,0,0,21.12-16.17,31.33-35.73C209.51,160.82,212.09,157.59,208.27,154.29Zm-77.68-34.91a23.54,23.54,0,0,1-16.17,11.46,19.1,19.1,0,0,1-14.69-3.59,20.57,20.57,0,0,1-5.26-5.76,21.58,21.58,0,0,1-2.92-7.43,19.22,19.22,0,0,1,.08-7.67,19.54,19.54,0,0,1,3.22-7.19,21.65,21.65,0,0,1,6.46-5.92,21.2,21.2,0,0,1,8.12-3.08,19.7,19.7,0,0,1,7.76.37A18.82,18.82,0,0,1,124,93.91a21.34,21.34,0,0,1,5.16,5.75c.34.55.66,1.08,1,1.6a7.4,7.4,0,0,1,.62,1.37L105,118.47a11.55,11.55,0,0,0,3.1,2.9,10.25,10.25,0,0,0,3.57,1.39,10,10,0,0,0,3.74,0,10.35,10.35,0,0,0,3.52-1.38,11.57,11.57,0,0,0,4-4.19,7.73,7.73,0,0,0,1.06-5.16l8.54-2.48A17.41,17.41,0,0,1,130.59,119.38Z"/></svg>