<svg id="Layer_1" data-name="Layer 1" xmlns="http://www.w3.org/2000/svg" width="40.49" height="54.94" viewBox="0 0 40.49 54.94"><defs><style>.cls-1{fill:#ef493f;}</style></defs><title>logo</title><path class="cls-1" d="M34,1.06H49.09V2.78c-.71.32-1.44.6-2.2.86a17.88,17.88,0,0,1-2.31.63V41.38a20.57,20.57,0,0,1-1,6.84,13.51,13.51,0,0,1-2.34,4.3,9.34,9.34,0,0,1-3,2.41A13.79,13.79,0,0,1,35.43,56l-.66-.89a11.88,11.88,0,0,0,1.64-1.75,10,10,0,0,0,1.3-2.47,16.16,16.16,0,0,0,.86-3.63,38.28,38.28,0,0,0,.3-5.22V4.27q-1.3-.3-2.55-.66A17.49,17.49,0,0,1,34,2.78Z" transform="translate(-34 -1.06)"/><path class="cls-1" d="M54.64,39.36a6.07,6.07,0,0,0,1.85,1.22,8.58,8.58,0,0,0,3.38.51,12.13,12.13,0,0,0,3.57-.51,8.54,8.54,0,0,0,2.88-1.48,7.29,7.29,0,0,0,1.93-2.38A6.83,6.83,0,0,0,69,33.54a5.71,5.71,0,0,0-1.45-4,15,15,0,0,0-3.63-2.86c-1.44-.83-3-1.64-4.72-2.43a25.85,25.85,0,0,1-4.72-2.82,14.77,14.77,0,0,1-3.63-3.93,10.46,10.46,0,0,1-1.45-5.73,10.6,10.6,0,0,1,.89-4.46A9.25,9.25,0,0,1,52.77,4,11.66,11.66,0,0,1,56.66,1.9a16,16,0,0,1,5.05-.75,35.61,35.61,0,0,1,6.63.57,19.18,19.18,0,0,1,4.72,1.4c0,.67,0,1.45-.14,2.34s-.22,1.81-.36,2.76-.29,1.88-.45,2.77-.31,1.67-.47,2.35H70.09L67.72,5.2A10.53,10.53,0,0,0,65,4.48a24.4,24.4,0,0,0-3.51-.24,7,7,0,0,0-4.92,1.7,6.06,6.06,0,0,0-1.86,4.72,6,6,0,0,0,1.47,4.1,14.9,14.9,0,0,0,3.67,3c1.48.87,3.06,1.72,4.76,2.53a30.81,30.81,0,0,1,4.75,2.82A15.08,15.08,0,0,1,73,26.88a9.72,9.72,0,0,1,1.46,5.47,11.87,11.87,0,0,1-1,4.87A10.22,10.22,0,0,1,70.69,41a12.87,12.87,0,0,1-4.52,2.37,20.18,20.18,0,0,1-6.06.83,23.15,23.15,0,0,1-6.71-.89,12.55,12.55,0,0,1-4.22-1.9c0-.67.11-1.48.21-2.43s.21-1.93.35-3,.29-2,.45-2.94.31-1.76.47-2.43h1.55Z" transform="translate(-34 -1.06)"/></svg>